<svg id="logo" data-name="logo" xmlns="http://www.w3.org/2000/svg" xmlns:xlink="http://www.w3.org/1999/xlink" viewBox="0 0 98.89 77.64">
  <defs>
    <clipPath id="clip-path" transform="translate(-1.86 -1.69)">
      <rect x="-112.67" y="-15.67" width="1223.9" height="2719" style="fill: none"/>
    </clipPath>
  </defs>
  <g style="clip-path: url(#clip-path)">
    <path d="M10.69,56H1.86l6.7-40.06h8.11L14.86,26.85c2.2-8.17,8.06-11.14,13.86-11.14.24,0,1,0,1.47.07l-1.55,9c-.86-.06-1.52-.08-2-.08a11.84,11.84,0,0,0-6.16,1.73A12.31,12.31,0,0,0,16,31.05Q14.35,34,13.24,40.68Z" transform="translate(-1.86 -1.69)" style="fill: #0e5dc7"/>
    <path d="M76,56H66.74l6.7-40.06h9.25Zm7.48-44.7H74.22l1.62-9.61h9.25Z" transform="translate(-1.86 -1.69)" style="fill: #0e5dc7"/>
    <path d="M90.82,56H81.55l6.7-40.06h9.26ZM98.3,11.3H89l1.62-9.61h9.25Z" transform="translate(-1.86 -1.69)" style="fill: #0e5dc7"/>
    <path d="M39.85,61.27h1.4c1,0,1.53.59,1.53,1.78a2.25,2.25,0,0,1-.16.91,1.29,1.29,0,0,1-.59.61L43,67.34h-.92l-.81-2.59h-.52v2.59h-.87ZM40.72,64h.5a.9.9,0,0,0,.36-.06.48.48,0,0,0,.21-.19.76.76,0,0,0,.1-.29c0-.12,0-.25,0-.41s0-.28,0-.4a.82.82,0,0,0-.11-.3.52.52,0,0,0-.23-.18,1,1,0,0,0-.38-.06h-.45Z" transform="translate(-1.86 -1.69)" style="fill: #9d9c9a"/>
    <path d="M44.22,65.51v.59a.4.4,0,0,0,.12.31.41.41,0,0,0,.31.11.37.37,0,0,0,.33-.14.91.91,0,0,0,.1-.29H46a1.71,1.71,0,0,1-.09.51,1.25,1.25,0,0,1-.26.41,1.3,1.3,0,0,1-.41.28,1.33,1.33,0,0,1-.54.1,1.26,1.26,0,0,1-.69-.17,1.16,1.16,0,0,1-.57-.84,3.68,3.68,0,0,1,0-.49V64.47a3.68,3.68,0,0,1,0-.49,1.16,1.16,0,0,1,.57-.84,1.26,1.26,0,0,1,.69-.17,1.33,1.33,0,0,1,.54.1,1.09,1.09,0,0,1,.41.29,1.24,1.24,0,0,1,.26.43,1.77,1.77,0,0,1,.09.52v1.2Zm0-.68h.86v-.5A.51.51,0,0,0,45,64a.4.4,0,0,0-.31-.12.41.41,0,0,0-.31.12.51.51,0,0,0-.12.37Z" transform="translate(-1.86 -1.69)" style="fill: #9d9c9a"/>
    <path d="M47.46,67.84a.47.47,0,0,0,.12.29.4.4,0,0,0,.34.14.33.33,0,0,0,.3-.13.53.53,0,0,0,.1-.34V67h0a1.07,1.07,0,0,1-.34.33,1,1,0,0,1-.47.11.78.78,0,0,1-.76-.41,1,1,0,0,1-.11-.35,4.34,4.34,0,0,1,0-.57V64.41c0-.31,0-.55,0-.69a.85.85,0,0,1,.12-.36.75.75,0,0,1,.28-.28A.85.85,0,0,1,47.5,63a1.14,1.14,0,0,1,.28,0,1,1,0,0,1,.21.09l.17.14.16.18V63h.87v4.85a1.42,1.42,0,0,1-.08.45,1.05,1.05,0,0,1-.23.41,1.28,1.28,0,0,1-.41.3,1.48,1.48,0,0,1-.59.11,1.44,1.44,0,0,1-.4-.06,1,1,0,0,1-.4-.22,1.39,1.39,0,0,1-.32-.39,2.06,2.06,0,0,1-.17-.63Zm0-1.83a.69.69,0,0,0,.09.36.35.35,0,0,0,.33.15.42.42,0,0,0,.32-.13.48.48,0,0,0,.12-.33V64.37A.62.62,0,0,0,48.2,64a.4.4,0,0,0-.32-.14.35.35,0,0,0-.32.16.77.77,0,0,0-.1.42Z" transform="translate(-1.86 -1.69)" style="fill: #9d9c9a"/>
    <path d="M49.9,61.27h.88v.87H49.9Zm0,1.75h.88v4.32H49.9Z" transform="translate(-1.86 -1.69)" style="fill: #9d9c9a"/>
    <path d="M53.07,64.23a.43.43,0,0,0-.14-.33.44.44,0,0,0-.31-.11.37.37,0,0,0-.31.13.48.48,0,0,0-.11.3.53.53,0,0,0,.06.24.57.57,0,0,0,.31.2l.51.21a1.29,1.29,0,0,1,.67.51,1.44,1.44,0,0,1,.18.71,1.36,1.36,0,0,1-.37.92,1.2,1.2,0,0,1-.41.28,1.24,1.24,0,0,1-.52.1,1.51,1.51,0,0,1-.48-.08,1.22,1.22,0,0,1-.41-.25,1.11,1.11,0,0,1-.28-.41,1.22,1.22,0,0,1-.12-.56h.82a.77.77,0,0,0,.12.33.37.37,0,0,0,.34.15.52.52,0,0,0,.34-.12.43.43,0,0,0,.15-.35.49.49,0,0,0-.09-.3.76.76,0,0,0-.35-.23l-.41-.15a1.46,1.46,0,0,1-.65-.45,1.21,1.21,0,0,1-.23-.74,1.22,1.22,0,0,1,.38-.91,1.15,1.15,0,0,1,.41-.26,1.38,1.38,0,0,1,1,0,1.36,1.36,0,0,1,.39.27,1.09,1.09,0,0,1,.25.4,1.21,1.21,0,0,1,.1.5Z" transform="translate(-1.86 -1.69)" style="fill: #9d9c9a"/>
    <path d="M54.49,61.7h.87V63h.54v.68h-.54v2.4a.67.67,0,0,0,0,.23.27.27,0,0,0,.1.13.28.28,0,0,0,.16.05h.25v.82h-.36a1.16,1.16,0,0,1-.49-.09.83.83,0,0,1-.33-.24,1.29,1.29,0,0,1-.17-.33,1.12,1.12,0,0,1-.06-.35V63.7h-.43V63h.43Z" transform="translate(-1.86 -1.69)" style="fill: #9d9c9a"/>
    <path d="M57,65.51v.59a.4.4,0,0,0,.12.31.41.41,0,0,0,.31.11.36.36,0,0,0,.33-.14.91.91,0,0,0,.1-.29h.87a1.44,1.44,0,0,1-.09.51,1.25,1.25,0,0,1-.26.41,1.2,1.2,0,0,1-.41.28,1.33,1.33,0,0,1-.54.1,1.29,1.29,0,0,1-.69-.17,1.16,1.16,0,0,1-.57-.84,3.68,3.68,0,0,1,0-.49V64.47a3.68,3.68,0,0,1,0-.49,1.16,1.16,0,0,1,.57-.84,1.29,1.29,0,0,1,.69-.17,1.33,1.33,0,0,1,.54.1,1.09,1.09,0,0,1,.41.29,1.24,1.24,0,0,1,.26.43,1.5,1.5,0,0,1,.09.52v1.2Zm0-.68h.86v-.5a.51.51,0,0,0-.12-.37.4.4,0,0,0-.31-.12.41.41,0,0,0-.31.12.51.51,0,0,0-.12.37Z" transform="translate(-1.86 -1.69)" style="fill: #9d9c9a"/>
    <path d="M59.39,63h.87v.46a2.73,2.73,0,0,1,.52-.38,1.34,1.34,0,0,1,.63-.13v.92a.62.62,0,0,0-.27,0,1.06,1.06,0,0,0-.29,0,.92.92,0,0,0-.29.16.82.82,0,0,0-.22.29,1.15,1.15,0,0,0-.08.44v2.57h-.87Z" transform="translate(-1.86 -1.69)" style="fill: #9d9c9a"/>
    <path d="M63.27,64.47a3.68,3.68,0,0,1,0-.49,1.37,1.37,0,0,1,.13-.39,1.12,1.12,0,0,1,.44-.45,1.32,1.32,0,0,1,.7-.17,1.26,1.26,0,0,1,.69.17,1.12,1.12,0,0,1,.44.45,1.37,1.37,0,0,1,.13.39,3.68,3.68,0,0,1,0,.49v1.42a3.68,3.68,0,0,1,0,.49,1.37,1.37,0,0,1-.13.39,1.12,1.12,0,0,1-.44.45,1.26,1.26,0,0,1-.69.17,1.32,1.32,0,0,1-.7-.17,1.12,1.12,0,0,1-.44-.45,1.37,1.37,0,0,1-.13-.39,3.68,3.68,0,0,1,0-.49ZM64.14,66a.51.51,0,0,0,.12.37.39.39,0,0,0,.31.12.43.43,0,0,0,.31-.12A.56.56,0,0,0,65,66v-1.7a.56.56,0,0,0-.11-.37.43.43,0,0,0-.31-.12.39.39,0,0,0-.31.12.51.51,0,0,0-.12.37Z" transform="translate(-1.86 -1.69)" style="fill: #9d9c9a"/>
    <path d="M66.61,63.7h-.42V63h.42v-.59a1.35,1.35,0,0,1,.1-.53.86.86,0,0,1,.25-.36.93.93,0,0,1,.36-.21,1.4,1.4,0,0,1,.41-.06h.4v.82h-.39c-.17,0-.26.1-.26.3V63h.65v.68h-.65v3.64h-.87Z" transform="translate(-1.86 -1.69)" style="fill: #9d9c9a"/>
    <path d="M70,61.27h1.31a2,2,0,0,1,.63.09,1.37,1.37,0,0,1,.8.89,3.41,3.41,0,0,1,.09.87,4.44,4.44,0,0,1,0,.69,1.42,1.42,0,0,1-.2.53,1.35,1.35,0,0,1-.48.47,1.61,1.61,0,0,1-.78.16H70.9v2.37H70Zm.87,2.88h.42a.92.92,0,0,0,.41-.07.47.47,0,0,0,.21-.21.66.66,0,0,0,.08-.32c0-.13,0-.27,0-.42s0-.28,0-.41a.88.88,0,0,0-.07-.33.53.53,0,0,0-.2-.22.71.71,0,0,0-.39-.08H70.9Z" transform="translate(-1.86 -1.69)" style="fill: #9d9c9a"/>
    <path d="M73.4,61.27h.87v4.85a.48.48,0,0,0,.09.34.52.52,0,0,0,.34.11v.82a3,3,0,0,1-.54,0,.86.86,0,0,1-.41-.18.92.92,0,0,1-.26-.37,1.81,1.81,0,0,1-.09-.62Z" transform="translate(-1.86 -1.69)" style="fill: #9d9c9a"/>
    <path d="M76.69,66.9h0a1.57,1.57,0,0,1-.35.37.87.87,0,0,1-.49.12,1.15,1.15,0,0,1-.31,0,.76.76,0,0,1-.31-.18.85.85,0,0,1-.23-.35,1.56,1.56,0,0,1-.08-.58,4,4,0,0,1,0-.64,1,1,0,0,1,.22-.46.89.89,0,0,1,.42-.28,2.49,2.49,0,0,1,.68-.09h.19l.23,0v-.45a.62.62,0,0,0-.1-.37.39.39,0,0,0-.34-.14.45.45,0,0,0-.31.11.49.49,0,0,0-.18.32h-.85a1.29,1.29,0,0,1,.8-1.21,1.53,1.53,0,0,1,.54-.09,1.7,1.7,0,0,1,.51.08,1.14,1.14,0,0,1,.42.26,1.13,1.13,0,0,1,.27.42,1.57,1.57,0,0,1,.1.6v3h-.86Zm0-1.42a1.15,1.15,0,0,0-.24,0,.82.82,0,0,0-.48.13.52.52,0,0,0-.2.48.61.61,0,0,0,.11.4.44.44,0,0,0,.34.16.42.42,0,0,0,.34-.15.58.58,0,0,0,.13-.41Z" transform="translate(-1.86 -1.69)" style="fill: #9d9c9a"/>
    <path d="M78.65,63l.59,2.69h0L79.85,63h.9L79.5,68.09a1.55,1.55,0,0,1-.19.48,1.08,1.08,0,0,1-.29.31,1,1,0,0,1-.34.16,1.73,1.73,0,0,1-.38,0h-.24v-.82h.19a.65.65,0,0,0,.22,0,.28.28,0,0,0,.17-.15,1,1,0,0,0,.13-.34c0-.16.09-.35.14-.6L77.72,63Z" transform="translate(-1.86 -1.69)" style="fill: #9d9c9a"/>
    <rect x="36.43" y="69.82" width="0.87" height="6.07" style="fill: #9d9c9a"/>
    <path d="M40,73.25h.87v.42h0a1.19,1.19,0,0,1,.33-.34.91.91,0,0,1,.49-.13.87.87,0,0,1,.32.06.59.59,0,0,1,.29.18.93.93,0,0,1,.21.33,1.37,1.37,0,0,1,.07.49v3.32h-.86v-3a.53.53,0,0,0-.12-.37.38.38,0,0,0-.31-.14.35.35,0,0,0-.34.16.75.75,0,0,0-.1.44v2.91H40Z" transform="translate(-1.86 -1.69)" style="fill: #9d9c9a"/>
    <path d="M44.85,74.46a.46.46,0,0,0-.14-.33A.49.49,0,0,0,44.4,74a.37.37,0,0,0-.31.13.49.49,0,0,0-.11.31.5.5,0,0,0,.05.23.66.66,0,0,0,.31.21l.51.2a1.33,1.33,0,0,1,.68.51,1.47,1.47,0,0,1,.18.71,1.22,1.22,0,0,1-.1.51,1,1,0,0,1-.27.41,1.07,1.07,0,0,1-.41.28,1.3,1.3,0,0,1-1,0,1.2,1.2,0,0,1-.41-.24,1.35,1.35,0,0,1-.28-.41,1.26,1.26,0,0,1-.12-.57h.81a.89.89,0,0,0,.13.34.37.37,0,0,0,.34.15.48.48,0,0,0,.34-.13.41.41,0,0,0,.15-.34A.54.54,0,0,0,44.8,76a.83.83,0,0,0-.34-.22L44,75.66a1.53,1.53,0,0,1-.64-.46,1.21,1.21,0,0,1-.23-.74,1.25,1.25,0,0,1,.1-.51,1.21,1.21,0,0,1,.28-.39,1.15,1.15,0,0,1,.4-.26,1.18,1.18,0,0,1,.5-.1,1.16,1.16,0,0,1,.49.1,1.33,1.33,0,0,1,.39.26,1.62,1.62,0,0,1,.26.4,1.7,1.7,0,0,1,.09.5Z" transform="translate(-1.86 -1.69)" style="fill: #9d9c9a"/>
    <path d="M46.27,73.25h.87v.39a2,2,0,0,1,.34-.31A.82.82,0,0,1,48,73.2a.8.8,0,0,1,.76.41,1.17,1.17,0,0,1,.11.36,4.24,4.24,0,0,1,0,.57v1.65a6.26,6.26,0,0,1,0,.69,1.09,1.09,0,0,1-.11.36,1.11,1.11,0,0,1-.29.28,1,1,0,0,1-.49.11.84.84,0,0,1-.45-.12.92.92,0,0,1-.35-.33h0v2.14h-.87ZM48,74.66a.78.78,0,0,0-.1-.43.36.36,0,0,0-.32-.16.39.39,0,0,0-.32.15.61.61,0,0,0-.12.39v1.68a.49.49,0,0,0,.12.34.46.46,0,0,0,.32.13.33.33,0,0,0,.33-.16.69.69,0,0,0,.09-.36Z" transform="translate(-1.86 -1.69)" style="fill: #9d9c9a"/>
    <path d="M50.38,75.74v.59a.42.42,0,0,0,.12.32.45.45,0,0,0,.31.11.34.34,0,0,0,.33-.15.77.77,0,0,0,.1-.29h.87a1.36,1.36,0,0,1-.09.51,1.22,1.22,0,0,1-.67.69,1.33,1.33,0,0,1-.54.11,1.36,1.36,0,0,1-.69-.17,1.21,1.21,0,0,1-.44-.46,1.12,1.12,0,0,1-.13-.39,2.45,2.45,0,0,1,0-.48V74.7a2.33,2.33,0,0,1,0-.48,1.15,1.15,0,0,1,.57-.85,1.36,1.36,0,0,1,.69-.17,1.33,1.33,0,0,1,.54.1,1.22,1.22,0,0,1,.41.29A1.24,1.24,0,0,1,52,74a1.55,1.55,0,0,1,.09.53v1.19Zm0-.68h.86v-.49a.54.54,0,0,0-.12-.38.4.4,0,0,0-.31-.12.41.41,0,0,0-.31.12.54.54,0,0,0-.12.38Z" transform="translate(-1.86 -1.69)" style="fill: #9d9c9a"/>
    <path d="M53.67,76.33a.42.42,0,0,0,.11.32.45.45,0,0,0,.31.11.33.33,0,0,0,.33-.15.63.63,0,0,0,.1-.29h.87a1.36,1.36,0,0,1-.09.51,1,1,0,0,1-.26.41,1.07,1.07,0,0,1-.41.28,1.33,1.33,0,0,1-.54.11,1.41,1.41,0,0,1-.69-.17A1.21,1.21,0,0,1,53,77a1.37,1.37,0,0,1-.13-.39,3.64,3.64,0,0,1,0-.48V74.7a3.68,3.68,0,0,1,0-.49,1.63,1.63,0,0,1,.13-.39,1.26,1.26,0,0,1,.44-.45,1.41,1.41,0,0,1,.69-.17,1.33,1.33,0,0,1,.54.1,1.14,1.14,0,0,1,.67.73,1.63,1.63,0,0,1,.09.55h-.87a.62.62,0,0,0-.11-.39.44.44,0,0,0-.32-.12.41.41,0,0,0-.31.12.54.54,0,0,0-.11.38Z" transform="translate(-1.86 -1.69)" style="fill: #9d9c9a"/>
    <path d="M55.9,71.94h.87v1.31h.54v.68h-.54v2.4a.78.78,0,0,0,0,.24.25.25,0,0,0,.09.13.42.42,0,0,0,.17,0h.25v.82H57a1.06,1.06,0,0,1-.5-.1.87.87,0,0,1-.32-.24,1.11,1.11,0,0,1-.18-.32,1.56,1.56,0,0,1-.05-.36V73.93h-.43v-.68h.43Z" transform="translate(-1.86 -1.69)" style="fill: #9d9c9a"/>
    <path d="M57.57,74.7a3.68,3.68,0,0,1,0-.49,1.27,1.27,0,0,1,.12-.39,1.29,1.29,0,0,1,.45-.45,1.49,1.49,0,0,1,1.38,0,1.29,1.29,0,0,1,.45.45,1.27,1.27,0,0,1,.12.39,3.6,3.6,0,0,1,0,.49v1.43a3.58,3.58,0,0,1,0,.48A1.12,1.12,0,0,1,60,77a1.24,1.24,0,0,1-.45.46,1.49,1.49,0,0,1-1.38,0,1.24,1.24,0,0,1-.45-.46,1.12,1.12,0,0,1-.12-.39,3.64,3.64,0,0,1,0-.48Zm.86,1.56a.5.5,0,0,0,.12.37.43.43,0,0,0,.62,0,.5.5,0,0,0,.12-.37V74.57a.54.54,0,0,0-.12-.38.46.46,0,0,0-.62,0,.54.54,0,0,0-.12.38Z" transform="translate(-1.86 -1.69)" style="fill: #9d9c9a"/>
    <path d="M60.8,73.25h.87v.46a3.1,3.1,0,0,1,.51-.37,1.41,1.41,0,0,1,.64-.14v.92a.81.81,0,0,0-.27-.05,1,1,0,0,0-.29.05.8.8,0,0,0-.29.15.87.87,0,0,0-.22.3,1,1,0,0,0-.08.44v2.57H60.8Z" transform="translate(-1.86 -1.69)" style="fill: #9d9c9a"/>
    <path d="M64.74,74.46a.42.42,0,0,0-.14-.33.46.46,0,0,0-.3-.11.36.36,0,0,0-.31.13.45.45,0,0,0-.12.31.55.55,0,0,0,.07.23.53.53,0,0,0,.3.21l.51.2a1.26,1.26,0,0,1,.67.51,1.38,1.38,0,0,1,.19.71,1.4,1.4,0,0,1-.1.51,1.33,1.33,0,0,1-.27.41,1.07,1.07,0,0,1-.41.28,1.3,1.3,0,0,1-1,0,1.2,1.2,0,0,1-.41-.24,1.38,1.38,0,0,1-.29-.41,1.41,1.41,0,0,1-.11-.57h.81a.89.89,0,0,0,.13.34.37.37,0,0,0,.34.15.48.48,0,0,0,.34-.13.41.41,0,0,0,.15-.34.48.48,0,0,0-.1-.31.71.71,0,0,0-.34-.22l-.41-.15a1.5,1.5,0,0,1-.65-.46,1.15,1.15,0,0,1-.23-.74,1.25,1.25,0,0,1,.1-.51,1.21,1.21,0,0,1,.28-.39,1.07,1.07,0,0,1,.4-.26,1.21,1.21,0,0,1,.5-.1,1.16,1.16,0,0,1,.49.1,1.28,1.28,0,0,1,.38.26,1.2,1.2,0,0,1,.26.4,1.43,1.43,0,0,1,.09.5Z" transform="translate(-1.86 -1.69)" style="fill: #9d9c9a"/>
    <rect x="65.97" y="69.82" width="0.87" height="6.07" style="fill: #9d9c9a"/>
    <path d="M69.5,73.25h.86v.42h0a1.19,1.19,0,0,1,.33-.34.91.91,0,0,1,.49-.13,1,1,0,0,1,.33.06.7.7,0,0,1,.29.18,1.08,1.08,0,0,1,.2.33,1.36,1.36,0,0,1,.08.49v3.32h-.87v-3a.58.58,0,0,0-.11-.37.4.4,0,0,0-.32-.14.36.36,0,0,0-.34.16.84.84,0,0,0-.1.44v2.91H69.5Z" transform="translate(-1.86 -1.69)" style="fill: #9d9c9a"/>
    <path d="M72.81,71.94h.88v1.31h.53v.68h-.53v2.4a.82.82,0,0,0,0,.24.27.27,0,0,0,.1.13.38.38,0,0,0,.17,0h.24v.82h-.36a1,1,0,0,1-.49-.1.83.83,0,0,1-.33-.24.9.9,0,0,1-.17-.32,1.18,1.18,0,0,1-.06-.36V73.93h-.43v-.68h.43Z" transform="translate(-1.86 -1.69)" style="fill: #9d9c9a"/>
    <path d="M75.35,75.74v.59a.42.42,0,0,0,.11.32.45.45,0,0,0,.31.11.34.34,0,0,0,.33-.15.77.77,0,0,0,.1-.29h.87a1.36,1.36,0,0,1-.09.51,1.15,1.15,0,0,1-.26.41,1.07,1.07,0,0,1-.41.28,1.33,1.33,0,0,1-.54.11,1.38,1.38,0,0,1-.69-.17,1.21,1.21,0,0,1-.44-.46,1.12,1.12,0,0,1-.13-.39,3.58,3.58,0,0,1,0-.48V74.7a3.32,3.32,0,0,1,0-.48,1.15,1.15,0,0,1,.57-.85,1.38,1.38,0,0,1,.69-.17,1.33,1.33,0,0,1,.54.1,1.13,1.13,0,0,1,.41.29A1.24,1.24,0,0,1,77,74a1.55,1.55,0,0,1,.09.53v1.19Zm0-.68h.85v-.49a.54.54,0,0,0-.12-.38.39.39,0,0,0-.31-.12.41.41,0,0,0-.31.12.54.54,0,0,0-.11.38Z" transform="translate(-1.86 -1.69)" style="fill: #9d9c9a"/>
    <path d="M77.71,73.25h.87v.46a3.15,3.15,0,0,1,.52-.37,1.33,1.33,0,0,1,.63-.14v.92a.75.75,0,0,0-.26-.05,1.11,1.11,0,0,0-.3.05.89.89,0,0,0-.29.15,1,1,0,0,0-.22.3,1.15,1.15,0,0,0-.08.44v2.57h-.87Z" transform="translate(-1.86 -1.69)" style="fill: #9d9c9a"/>
    <path d="M80.08,73.25H81v.42h0a1.19,1.19,0,0,1,.33-.34.86.86,0,0,1,.49-.13,1,1,0,0,1,.32.06.64.64,0,0,1,.29.18.91.91,0,0,1,.2.33,1.17,1.17,0,0,1,.08.49v3.32h-.87v-3a.58.58,0,0,0-.11-.37.39.39,0,0,0-.32-.14.37.37,0,0,0-.34.16.85.85,0,0,0-.09.44v2.91h-.87Z" transform="translate(-1.86 -1.69)" style="fill: #9d9c9a"/>
    <path d="M85,77.13h0a1.37,1.37,0,0,1-.34.37.77.77,0,0,1-.49.13,1.25,1.25,0,0,1-.32,0,.83.83,0,0,1-.3-.17.93.93,0,0,1-.23-.35,1.57,1.57,0,0,1-.09-.58,3.13,3.13,0,0,1,.06-.65,1,1,0,0,1,.22-.46A1,1,0,0,1,84,75.1a2.15,2.15,0,0,1,.68-.09H85v-.45a.72.72,0,0,0-.09-.37.4.4,0,0,0-.34-.14.49.49,0,0,0-.31.11.52.52,0,0,0-.19.33h-.84a1.42,1.42,0,0,1,.39-.94,1.17,1.17,0,0,1,.41-.27,1.33,1.33,0,0,1,.54-.1,1.44,1.44,0,0,1,.51.09,1.12,1.12,0,0,1,.42.25,1.43,1.43,0,0,1,.27.43,1.57,1.57,0,0,1,.1.6v3H85Zm0-1.41-.24,0a.8.8,0,0,0-.48.14.52.52,0,0,0-.2.48.65.65,0,0,0,.12.4.41.41,0,0,0,.34.15.44.44,0,0,0,.34-.14.65.65,0,0,0,.12-.41Z" transform="translate(-1.86 -1.69)" style="fill: #9d9c9a"/>
    <path d="M86.55,71.94h.87v1.31H88v.68h-.54v2.4a.78.78,0,0,0,0,.24.22.22,0,0,0,.1.13.38.38,0,0,0,.16,0H88v.82H87.6a1.06,1.06,0,0,1-.5-.1.87.87,0,0,1-.32-.24.9.9,0,0,1-.17-.32,1.18,1.18,0,0,1-.06-.36V73.93h-.43v-.68h.43Z" transform="translate(-1.86 -1.69)" style="fill: #9d9c9a"/>
    <path d="M88.29,71.5h.87v.87h-.87Zm0,1.75h.87v4.33h-.87Z" transform="translate(-1.86 -1.69)" style="fill: #9d9c9a"/>
    <path d="M89.8,74.7a2.49,2.49,0,0,1,0-.49,1.28,1.28,0,0,1,.13-.39,1.18,1.18,0,0,1,.44-.45,1.36,1.36,0,0,1,.69-.17,1.38,1.38,0,0,1,.69.17,1.26,1.26,0,0,1,.44.45,1.06,1.06,0,0,1,.13.39,3.6,3.6,0,0,1,0,.49v1.43a3.58,3.58,0,0,1,0,.48,1,1,0,0,1-.13.39,1.21,1.21,0,0,1-.44.46,1.38,1.38,0,0,1-.69.17,1.36,1.36,0,0,1-.69-.17A1.14,1.14,0,0,1,90,77a1.12,1.12,0,0,1-.13-.39,2.45,2.45,0,0,1,0-.48Zm.87,1.56a.5.5,0,0,0,.12.37.43.43,0,0,0,.62,0,.5.5,0,0,0,.12-.37V74.57a.54.54,0,0,0-.12-.38.46.46,0,0,0-.62,0,.54.54,0,0,0-.12.38Z" transform="translate(-1.86 -1.69)" style="fill: #9d9c9a"/>
    <path d="M93,73.25h.86v.42h0a1.19,1.19,0,0,1,.33-.34.91.91,0,0,1,.49-.13,1,1,0,0,1,.33.06.61.61,0,0,1,.28.18.93.93,0,0,1,.21.33,1.36,1.36,0,0,1,.08.49v3.32h-.87v-3a.53.53,0,0,0-.12-.37.37.37,0,0,0-.31-.14.36.36,0,0,0-.34.16.75.75,0,0,0-.1.44v2.91H93Z" transform="translate(-1.86 -1.69)" style="fill: #9d9c9a"/>
    <path d="M98,77.13h0a1.55,1.55,0,0,1-.34.37.79.79,0,0,1-.49.13,1.19,1.19,0,0,1-.32,0,.75.75,0,0,1-.3-.17.82.82,0,0,1-.23-.35,1.57,1.57,0,0,1-.09-.58,3.13,3.13,0,0,1,.06-.65,1.09,1.09,0,0,1,.21-.46,1,1,0,0,1,.43-.27,2.09,2.09,0,0,1,.67-.09H98v-.45a.64.64,0,0,0-.1-.37.38.38,0,0,0-.34-.14.53.53,0,0,0-.31.11.56.56,0,0,0-.18.33h-.84a1.33,1.33,0,0,1,.39-.94,1.23,1.23,0,0,1,.4-.27,1.33,1.33,0,0,1,.54-.1,1.4,1.4,0,0,1,.51.09,1,1,0,0,1,.42.25,1.45,1.45,0,0,1,.28.43,1.79,1.79,0,0,1,.1.6v3H98Zm0-1.41-.24,0a.76.76,0,0,0-.48.14.5.5,0,0,0-.21.48.66.66,0,0,0,.13.4.4.4,0,0,0,.33.15.43.43,0,0,0,.34-.14.59.59,0,0,0,.13-.41Z" transform="translate(-1.86 -1.69)" style="fill: #9d9c9a"/>
    <path d="M99.46,71.5h.87v4.86a.47.47,0,0,0,.09.33.54.54,0,0,0,.33.12v.82a2.92,2.92,0,0,1-.54,0,.9.9,0,0,1-.41-.18.84.84,0,0,1-.25-.37,1.75,1.75,0,0,1-.09-.61Z" transform="translate(-1.86 -1.69)" style="fill: #9d9c9a"/>
    <path d="M62.36,19.17a11,11,0,0,0-9.14-4.57q-7.47,0-12.44,9.61l1.38-8.27H34.28L23.94,77.54h8.82l4.79-28.63q3,8.24,11.19,8.23,7.63,0,12.38-8A34,34,0,0,0,65.87,31.5q0-7.76-3.51-12.33M54.19,44.12c-1.66,3.88-4,5.81-7.11,5.81a7.29,7.29,0,0,1-5.57-2.5q-2.3-2.51-2.3-7.5a24.83,24.83,0,0,1,3.21-12.47q3.21-5.64,8-5.65,6.3,0,6.3,10.36a29.86,29.86,0,0,1-2.5,11.95" transform="translate(-1.86 -1.69)" style="fill: #0e5dc7"/>
  </g>
</svg>